<svg width="282" height="35" viewBox="0 0 282 35" fill="none" xmlns="http://www.w3.org/2000/svg">
<path d="M35.5242 0H0V35H35.5242V0Z" fill="#E13010"/>
<path fill-rule="evenodd" clip-rule="evenodd" d="M28.5644 16.8594V29.9926H26.156V28.1159C25.1997 28.7273 24.1731 29.1927 23.0841 29.5119C21.9951 29.8311 20.8631 29.9926 19.6882 29.9926C18.0098 29.9926 16.4367 29.6772 14.9613 29.0542C13.4858 28.4274 12.2055 27.5775 11.1165 26.5045C10.0275 25.4315 9.16483 24.1701 8.52858 22.7165C7.89234 21.2666 7.57617 19.7129 7.57617 18.0593C7.57617 16.4056 7.89234 14.8596 8.52858 13.4213C9.16483 11.9792 10.0275 10.7178 11.1165 9.63328C12.2055 8.54879 13.4858 7.69119 14.9613 7.06434C16.4328 6.43748 18.0098 6.12598 19.6882 6.12598C21.3393 6.12598 22.8967 6.43363 24.3605 7.04511C25.8242 7.65658 27.1162 8.52187 28.2404 9.62944L26.5542 11.2946C25.6447 10.4217 24.5947 9.73712 23.412 9.24102C22.2254 8.74492 20.988 8.49879 19.6921 8.49879C18.3494 8.49879 17.0925 8.74492 15.9176 9.24102C14.7427 9.73712 13.7161 10.4217 12.8261 11.2946C11.9401 12.1676 11.2453 13.1829 10.7418 14.3366C10.2382 15.4942 9.98843 16.7325 9.98843 18.0554C9.98843 19.3784 10.2382 20.6167 10.7418 21.7704C11.2453 22.928 11.9401 23.9432 12.8261 24.8162C13.7122 25.6892 14.7427 26.3738 15.9176 26.8699C17.0925 27.366 18.3494 27.6121 19.6921 27.6121C20.9138 27.6121 22.077 27.3967 23.1778 26.9737C24.2785 26.5507 25.2739 25.9584 26.1599 25.2046V19.2322H19.2588V16.8594H28.5644Z" fill="white"/>
<path fill-rule="evenodd" clip-rule="evenodd" d="M183.334 5.94531V8.31813H175.324V29.8427H172.916V8.31813H164.902V5.94531H183.334Z" fill="#E13010"/>
<path fill-rule="evenodd" clip-rule="evenodd" d="M124.511 5.75781V29.6552H122.102V10.0035L114.592 21.8291H112.079L104.569 10.0035V29.6552H102.16V5.75781H104.643L113.335 19.4217L122.032 5.75781H124.511Z" fill="#E13010"/>
<path fill-rule="evenodd" clip-rule="evenodd" d="M80.7898 27.6189C82.1325 27.6189 83.3894 27.3727 84.5604 26.8766C85.7353 26.3805 86.7657 25.7037 87.6518 24.8422C88.5379 23.9808 89.2326 22.9655 89.7362 21.7964C90.2397 20.6312 90.4895 19.3851 90.4895 18.0622C90.4895 16.7624 90.2397 15.5317 89.7362 14.3626C89.2326 13.1935 88.5379 12.1782 87.6518 11.3206C86.7657 10.4592 85.7353 9.77466 84.5604 9.26702C83.3855 8.75939 82.1286 8.50557 80.7898 8.50557C79.447 8.50557 78.1901 8.75939 77.0152 9.26702C75.8442 9.77466 74.8138 10.4592 73.9277 11.3206C73.0417 12.1821 72.3469 13.1974 71.8433 14.3626C71.3398 15.5317 71.09 16.7662 71.09 18.0622C71.09 19.3851 71.3398 20.6312 71.8433 21.7964C72.3469 22.9655 73.0417 23.9808 73.9277 24.8422C74.8138 25.7037 75.8442 26.3805 77.0152 26.8766C78.1901 27.3689 79.4509 27.6189 80.7898 27.6189ZM80.7898 6.12891C82.4682 6.12891 84.0373 6.44041 85.4972 7.06726C86.957 7.69412 88.2412 8.54787 89.3419 9.63237C90.4427 10.7169 91.3131 11.9821 91.9455 13.4204C92.5817 14.8587 92.8979 16.4047 92.8979 18.0584C92.8979 19.712 92.5778 21.2619 91.9455 22.7155C91.3092 24.1654 90.4427 25.4306 89.3419 26.5036C88.2412 27.5766 86.957 28.4265 85.4972 29.0533C84.0373 29.6802 82.4682 29.9917 80.7898 29.9917C79.1113 29.9917 77.5383 29.6802 76.0667 29.0533C74.5952 28.4265 73.311 27.5766 72.222 26.5036C71.1329 25.4306 70.2703 24.1654 69.634 22.7155C68.9978 21.2657 68.6816 19.712 68.6816 18.0584C68.6816 16.4047 68.9978 14.8587 69.634 13.4204C70.2703 11.9821 71.1329 10.7169 72.222 9.63237C73.311 8.54787 74.5952 7.69027 76.0667 7.06726C77.5383 6.44041 79.1152 6.12891 80.7898 6.12891Z" fill="#E13010"/>
<path fill-rule="evenodd" clip-rule="evenodd" d="M140.276 8.30739V15.7758H151.591V18.1486H140.276V27.4591H155.331V29.8319H137.867V5.93457H155.331V8.30739H140.276Z" fill="#E13010"/>
<path fill-rule="evenodd" clip-rule="evenodd" d="M45.2599 8.30739V15.7758H56.5757V18.1486H45.2599V27.4591H60.3151V29.8319H42.8516V5.93457H60.3151V8.30739H45.2599Z" fill="#E13010"/>
<path fill-rule="evenodd" clip-rule="evenodd" d="M255.01 25.9354C253.909 27.0199 252.621 27.8698 251.15 28.4851C249.678 29.1005 248.101 29.4043 246.423 29.4043C244.744 29.4043 243.171 29.0928 241.7 28.4659C240.228 27.8391 238.944 26.9892 237.855 25.9162C236.766 24.8432 235.903 23.5818 235.267 22.1281C234.631 20.6783 234.314 19.1246 234.314 17.4748C234.314 15.825 234.631 14.2713 235.267 12.8176C235.903 11.3678 236.766 10.0987 237.855 9.0142C238.944 7.92971 240.228 7.07211 241.7 6.4491C243.171 5.82225 244.748 5.51074 246.423 5.51074C248.101 5.51074 249.674 5.82225 251.15 6.4491C252.621 7.07596 253.909 7.92971 255.01 9.0142L253.285 10.6794C252.399 9.8295 251.36 9.1488 250.174 8.64501C248.991 8.13738 247.738 7.88356 246.419 7.88356C245.123 7.88356 243.897 8.13738 242.734 8.64501C241.571 9.15265 240.544 9.83719 239.646 10.6986C238.745 11.5601 238.034 12.5754 237.507 13.7406C236.98 14.9097 236.719 16.1557 236.719 17.4748C236.719 18.7516 236.969 19.9592 237.472 21.1052C237.976 22.2512 238.663 23.2626 239.537 24.151C240.411 25.0355 241.434 25.7393 242.609 26.2585C243.784 26.7776 245.053 27.0353 246.419 27.0353C247.711 27.0353 248.956 26.793 250.154 26.3085C251.353 25.8239 252.395 25.1355 253.281 24.2395L255.01 25.9354Z" fill="#E13010"/>
<path fill-rule="evenodd" clip-rule="evenodd" d="M266.98 22.0487H276.754L271.867 8.87705L266.98 22.0487ZM279.416 29.3056L277.617 24.4215H266.083L264.287 29.3056H261.699L270.572 5.4082H273.159L282 29.3056H279.416Z" fill="#E13010"/>
<path d="M223.797 5.4082H221.389V29.3056H223.797V5.4082Z" fill="#E13010"/>
<path fill-rule="evenodd" clip-rule="evenodd" d="M195.947 21.1907H202.774C203.684 21.1907 204.543 21.0215 205.343 20.6754C206.143 20.3331 206.846 19.8678 207.447 19.2756C208.044 18.6833 208.52 17.9949 208.864 17.2066C209.211 16.4143 209.387 15.5721 209.387 14.6761C209.387 13.78 209.211 12.9301 208.864 12.1263C208.516 11.3226 208.044 10.6265 207.447 10.0381C206.846 9.44587 206.147 8.98053 205.343 8.63826C204.539 8.29599 203.684 8.12294 202.774 8.12294H195.947V21.1907ZM211.795 14.6799C211.795 15.599 211.651 16.4912 211.362 17.3527C211.077 18.2141 210.679 19.0102 210.179 19.7409C209.676 20.4716 209.063 21.1138 208.344 21.6676C207.626 22.2214 206.834 22.6521 205.971 22.9598L210.573 29.6513H207.661L203.457 23.4905C203.145 23.5136 202.841 23.5328 202.54 23.5443C202.24 23.5559 201.935 23.5635 201.623 23.5635H195.947V29.6513H193.539V5.75781H202.774C204.02 5.75781 205.194 5.9924 206.295 6.46543C207.4 6.93845 208.356 7.57684 209.172 8.37676C209.984 9.18051 210.628 10.1227 211.092 11.2072C211.561 12.2956 211.795 13.4493 211.795 14.6799Z" fill="#E13010"/>
</svg>
