<svg width="55" height="45" viewBox="0 0 55 45" fill="none" xmlns="http://www.w3.org/2000/svg">
<path d="M36.8333 1H1V32.0556H36.8333V1Z" stroke="#FF0000" stroke-width="1.5" stroke-linecap="round" stroke-linejoin="round"/>
<path d="M36.833 12.9443H46.3886L53.5552 20.111V32.0554H36.833V12.9443Z" stroke="#FF0000" stroke-width="1.5" stroke-linecap="round" stroke-linejoin="round"/>
<path d="M11.7505 44.0001C15.0489 44.0001 17.7228 41.3263 17.7228 38.0279C17.7228 34.7295 15.0489 32.0557 11.7505 32.0557C8.45218 32.0557 5.77832 34.7295 5.77832 38.0279C5.77832 41.3263 8.45218 44.0001 11.7505 44.0001Z" stroke="#FF0000" stroke-width="1.5" stroke-linecap="round" stroke-linejoin="round"/>
<path d="M42.8052 44.0001C46.1036 44.0001 48.7774 41.3263 48.7774 38.0279C48.7774 34.7295 46.1036 32.0557 42.8052 32.0557C39.5069 32.0557 36.833 34.7295 36.833 38.0279C36.833 41.3263 39.5069 44.0001 42.8052 44.0001Z" stroke="#FF0000" stroke-width="1.5" stroke-linecap="round" stroke-linejoin="round"/>
</svg>
